<?xml version="1.0" standalone="no"?>
<!DOCTYPE svg PUBLIC "-//W3C//DTD SVG 20010904//EN"
 "http://www.w3.org/TR/2001/REC-SVG-20010904/DTD/svg10.dtd">
<svg version="1.0" xmlns="http://www.w3.org/2000/svg"
 width="640.000000pt" height="640.000000pt" viewBox="0 0 640.000000 640.000000"
 preserveAspectRatio="xMidYMid meet">
<metadata>
Created by potrace 1.16, written by Peter Selinger 2001-2019
</metadata>
<g transform="translate(0.000000,640.000000) scale(0.100000,-0.100000)"
fill="#000000" stroke="none">
<path d="M2515 4693 c-249 -36 -402 -176 -434 -394 -11 -82 -17 -2523 -5
-2553 6 -14 50 -16 445 -16 525 0 509 -3 623 114 63 65 70 69 80 51 24 -42 88
-103 133 -127 79 -43 138 -48 575 -48 l408 0 0 1273 c0 1222 -1 1277 -19 1348
-46 176 -151 278 -347 336 -53 16 -123 18 -744 19 -377 1 -698 -1 -715 -3z
m1435 -181 c95 -34 152 -79 186 -149 l29 -58 3 -1208 2 -1208 -347 3 c-388 3
-385 3 -440 75 l-28 36 -3 424 -3 424 -142 -3 -142 -3 -5 -420 c-6 -468 -2
-445 -76 -502 l-37 -28 -354 -3 -353 -3 0 1195 c0 1189 0 1196 21 1251 11 31
37 72 57 92 48 48 142 91 227 102 39 5 356 8 705 7 634 -1 635 -1 700 -24z"/>
<path d="M3065 3907 c-3 -7 -4 -98 -3 -202 l3 -190 140 0 140 0 0 200 0 200
-138 3 c-106 2 -139 0 -142 -11z"/>
<path d="M2332 2418 l3 -433 288 0 289 0 29 33 29 32 0 161 c0 156 -1 160 -24
182 l-24 23 24 21 c23 21 24 25 24 182 l0 161 -29 32 -29 33 -291 3 -291 3 2
-433z"/>
<path d="M3505 2841 c-11 -5 -29 -19 -40 -31 -19 -21 -20 -38 -23 -379 -2
-224 1 -368 7 -384 6 -15 25 -36 43 -47 31 -19 51 -20 311 -20 l277 0 0 265 0
265 -140 0 -140 0 0 -155 0 -155 -35 0 -35 0 2 218 3 217 29 1 c20 1 30 -4 33
-17 3 -11 10 -19 17 -19 63 -1 244 -2 254 -1 18 2 16 164 -3 200 -8 16 -28 34
-46 40 -37 13 -483 14 -514 2z"/>
</g>
</svg>
